{"asset":{"version":"2.0","generator":"HomeDesigner model builder"},"scene":0,"scenes":[{"name":"Scene","nodes":[0,1,2,3]}],"nodes":[{"name":"hull","mesh":0},{"name":"basin","mesh":1,"translation":[0,0.17,0]},{"name":"faucet","mesh":2,"translation":[0.3,0.42,-0.32]},{"name":"tap","mesh":3,"translation":[0.35,0.44,-0.26]}],"meshes":[{"name":"hull","primitives":[{"attributes":{"POSITION":0,"NORMAL":1},"material":0,"mode":4,"indices":2}]},{"name":"basin","primitives":[{"attributes":{"POSITION":3,"NORMAL":4},"material":1,"mode":4,"indices":5}]},{"name":"faucet","primitives":[{"attributes":{"POSITION":6,"NORMAL":7},"material":2,"mode":4,"indices":8}]},{"name":"tap","primitives":[{"attributes":{"POSITION":9,"NORMAL":10},"material":2,"mode":4,"indices":11}]}],"materials":[{"name":"tub","pbrMetallicRoughness":{"baseColorFactor":[0.9386857284565036,0.9386857284565036,0.9386857284565036,1],"metallicFactor":0,"roughnessFactor":0.05},"doubleSided":false},{"name":"water","pbrMetallicRoughness":{"baseColorFactor":[0.6307571363387763,0.8069522576650873,0.9046611743890203,1],"metallicFactor":0,"roughnessFactor":0.03},"doubleSided":false},{"name":"chrome","pbrMetallicRoughness":{"baseColorFactor":[0.6038273388475408,0.6038273388475408,0.6038273388475408,1],"metallicFactor":0.95,"roughnessFactor":0.05},"doubleSided":false}],"accessors":[{"bufferView":0,"byteOffset":0,"componentType":5126,"count":24,"type":"VEC3","min":[-0.5,-0.2750000059604645,-0.44999998807907104],"max":[0.5,0.2750000059604645,0.44999998807907104]},{"bufferView":1,"byteOffset":0,"componentType":5126,"count":24,"type":"VEC3"},{"bufferView":2,"byteOffset":0,"componentType":5123,"count":36,"type":"SCALAR"},{"bufferView":3,"byteOffset":0,"componentType":5126,"count":24,"type":"VEC3","min":[-0.4399999976158142,-0.14000000059604645,-0.3799999952316284],"max":[0.4399999976158142,0.14000000059604645,0.3799999952316284]},{"bufferView":4,"byteOffset":0,"componentType":5126,"count":24,"type":"VEC3"},{"bufferView":5,"byteOffset":0,"componentType":5123,"count":36,"type":"SCALAR"},{"bufferView":6,"byteOffset":0,"componentType":5126,"count":64,"type":"VEC3","min":[-0.02377641201019287,-0.09000000357627869,-0.02500000037252903],"max":[0.02377641201019287,0.09000000357627869,0.02500000037252903]},{"bufferView":7,"byteOffset":0,"componentType":5126,"count":64,"type":"VEC3"},{"bufferView":8,"byteOffset":0,"componentType":5123,"count":120,"type":"SCALAR"},{"bufferView":9,"byteOffset":0,"componentType":5126,"count":24,"type":"VEC3","min":[-0.05999999865889549,-0.014999999664723873,-0.014999999664723873],"max":[0.05999999865889549,0.014999999664723873,0.014999999664723873]},{"bufferView":10,"byteOffset":0,"componentType":5126,"count":24,"type":"VEC3"},{"bufferView":11,"byteOffset":0,"componentType":5123,"count":36,"type":"SCALAR"}],"bufferViews":[{"buffer":0,"byteOffset":0,"byteLength":288,"target":34962},{"buffer":0,"byteOffset":288,"byteLength":288,"target":34962},{"buffer":0,"byteOffset":3264,"byteLength":72,"target":34963},{"buffer":0,"byteOffset":576,"byteLength":288,"target":34962},{"buffer":0,"byteOffset":864,"byteLength":288,"target":34962},{"buffer":0,"byteOffset":3336,"byteLength":72,"target":34963},{"buffer":0,"byteOffset":1152,"byteLength":768,"target":34962},{"buffer":0,"byteOffset":1920,"byteLength":768,"target":34962},{"buffer":0,"byteOffset":3408,"byteLength":240,"target":34963},{"buffer":0,"byteOffset":2688,"byteLength":288,"target":34962},{"buffer":0,"byteOffset":2976,"byteLength":288,"target":34962},{"buffer":0,"byteOffset":3648,"byteLength":72,"target":34963}],"buffers":[{"byteLength":3720,"uri":"data:application/octet-stream;base64,"}]}