{"asset":{"version":"2.0","generator":"HomeDesigner model builder"},"scene":0,"scenes":[{"name":"Scene","nodes":[0,1,2,3,4]}],"nodes":[{"name":"frame","mesh":0,"translation":[0,-0.21,0]},{"name":"headboard","mesh":1,"translation":[0,0.08,-0.47]},{"name":"footboard","mesh":2,"translation":[0,-0.15,0.47]},{"name":"mattress","mesh":3,"translation":[0,-0.04,0]},{"name":"pillow","mesh":4,"translation":[0,0.1,-0.3]}],"meshes":[{"name":"frame","primitives":[{"attributes":{"POSITION":0,"NORMAL":1},"material":0,"mode":4,"indices":2}]},{"name":"headboard","primitives":[{"attributes":{"POSITION":3,"NORMAL":4},"material":0,"mode":4,"indices":5}]},{"name":"footboard","primitives":[{"attributes":{"POSITION":6,"NORMAL":7},"material":0,"mode":4,"indices":8}]},{"name":"mattress","primitives":[{"attributes":{"POSITION":9,"NORMAL":10},"material":1,"mode":4,"indices":11}]},{"name":"pillow","primitives":[{"attributes":{"POSITION":12,"NORMAL":13},"material":2,"mode":4,"indices":14}]}],"materials":[{"name":"frame","pbrMetallicRoughness":{"baseColorFactor":[0.25818285291079235,0.11193242782769693,0.04518620437910499,1],"metallicFactor":0,"roughnessFactor":0.7},"doubleSided":false},{"name":"mattress","pbrMetallicRoughness":{"baseColorFactor":[0.8069522576650873,0.6653872982754769,0.47353149613845735,1],"metallicFactor":0,"roughnessFactor":0.9},"doubleSided":false},{"name":"pillow","pbrMetallicRoughness":{"baseColorFactor":[1,1,1,1],"metallicFactor":0,"roughnessFactor":0.95},"doubleSided":false}],"accessors":[{"bufferView":0,"byteOffset":0,"componentType":5126,"count":24,"type":"VEC3","min":[-0.5,-0.03999999910593033,-0.5],"max":[0.5,0.03999999910593033,0.5]},{"bufferView":1,"byteOffset":0,"componentType":5126,"count":24,"type":"VEC3"},{"bufferView":2,"byteOffset":0,"componentType":5123,"count":36,"type":"SCALAR"},{"bufferView":3,"byteOffset":0,"componentType":5126,"count":24,"type":"VEC3","min":[-0.5,-0.2750000059604645,-0.029999999329447746],"max":[0.5,0.2750000059604645,0.029999999329447746]},{"bufferView":4,"byteOffset":0,"componentType":5126,"count":24,"type":"VEC3"},{"bufferView":5,"byteOffset":0,"componentType":5123,"count":36,"type":"SCALAR"},{"bufferView":6,"byteOffset":0,"componentType":5126,"count":24,"type":"VEC3","min":[-0.5,-0.10000000149011612,-0.02500000037252903],"max":[0.5,0.10000000149011612,0.02500000037252903]},{"bufferView":7,"byteOffset":0,"componentType":5126,"count":24,"type":"VEC3"},{"bufferView":8,"byteOffset":0,"componentType":5123,"count":36,"type":"SCALAR"},{"bufferView":9,"byteOffset":0,"componentType":5126,"count":24,"type":"VEC3","min":[-0.4749999940395355,-0.10999999940395355,-0.4399999976158142],"max":[0.4749999940395355,0.10999999940395355,0.4399999976158142]},{"bufferView":10,"byteOffset":0,"componentType":5126,"count":24,"type":"VEC3"},{"bufferView":11,"byteOffset":0,"componentType":5123,"count":36,"type":"SCALAR"},{"bufferView":12,"byteOffset":0,"componentType":5126,"count":24,"type":"VEC3","min":[-0.2750000059604645,-0.03999999910593033,-0.10999999940395355],"max":[0.2750000059604645,0.03999999910593033,0.10999999940395355]},{"bufferView":13,"byteOffset":0,"componentType":5126,"count":24,"type":"VEC3"},{"bufferView":14,"byteOffset":0,"componentType":5123,"count":36,"type":"SCALAR"}],"bufferViews":[{"buffer":0,"byteOffset":0,"byteLength":288,"target":34962},{"buffer":0,"byteOffset":288,"byteLength":288,"target":34962},{"buffer":0,"byteOffset":2880,"byteLength":72,"target":34963},{"buffer":0,"byteOffset":576,"byteLength":288,"target":34962},{"buffer":0,"byteOffset":864,"byteLength":288,"target":34962},{"buffer":0,"byteOffset":2952,"byteLength":72,"target":34963},{"buffer":0,"byteOffset":1152,"byteLength":288,"target":34962},{"buffer":0,"byteOffset":1440,"byteLength":288,"target":34962},{"buffer":0,"byteOffset":3024,"byteLength":72,"target":34963},{"buffer":0,"byteOffset":1728,"byteLength":288,"target":34962},{"buffer":0,"byteOffset":2016,"byteLength":288,"target":34962},{"buffer":0,"byteOffset":3096,"byteLength":72,"target":34963},{"buffer":0,"byteOffset":2304,"byteLength":288,"target":34962},{"buffer":0,"byteOffset":2592,"byteLength":288,"target":34962},{"buffer":0,"byteOffset":3168,"byteLength":72,"target":34963}],"buffers":[{"byteLength":3240,"uri":"data:application/octet-stream;base64,"}]}