{"asset":{"version":"2.0","generator":"HomeDesigner model builder"},"scene":0,"scenes":[{"name":"Scene","nodes":[0,1,2,3,4,5,6]}],"nodes":[{"name":"seat","mesh":0,"translation":[0,0.06,0.05]},{"name":"back","mesh":1,"translation":[0,0.38,-0.42]},{"name":"slat","mesh":2,"translation":[0,0.2,-0.4]},{"name":"leg","mesh":3,"translation":[-0.4,-0.22,-0.38]},{"name":"leg","mesh":4,"translation":[0.4,-0.22,-0.38]},{"name":"leg","mesh":5,"translation":[-0.4,-0.22,0.38]},{"name":"leg","mesh":6,"translation":[0.4,-0.22,0.38]}],"meshes":[{"name":"seat","primitives":[{"attributes":{"POSITION":0,"NORMAL":1},"material":1,"mode":4,"indices":2}]},{"name":"back","primitives":[{"attributes":{"POSITION":3,"NORMAL":4},"material":0,"mode":4,"indices":5}]},{"name":"slat","primitives":[{"attributes":{"POSITION":6,"NORMAL":7},"material":1,"mode":4,"indices":8}]},{"name":"leg","primitives":[{"attributes":{"POSITION":9,"NORMAL":10},"material":0,"mode":4,"indices":11}]},{"name":"leg","primitives":[{"attributes":{"POSITION":12,"NORMAL":13},"material":0,"mode":4,"indices":14}]},{"name":"leg","primitives":[{"attributes":{"POSITION":15,"NORMAL":16},"material":0,"mode":4,"indices":17}]},{"name":"leg","primitives":[{"attributes":{"POSITION":18,"NORMAL":19},"material":0,"mode":4,"indices":20}]}],"materials":[{"name":"wood","pbrMetallicRoughness":{"baseColorFactor":[0.25818285291079235,0.11193242782769693,0.04518620437910499,1],"metallicFactor":0,"roughnessFactor":0.7},"doubleSided":false},{"name":"seat","pbrMetallicRoughness":{"baseColorFactor":[0.6583748172725346,0.3864294337766795,0.14412847084818123,1],"metallicFactor":0,"roughnessFactor":0.85},"doubleSided":false}],"accessors":[{"bufferView":0,"byteOffset":0,"componentType":5126,"count":24,"type":"VEC3","min":[-0.5,-0.03500000014901161,-0.44999998807907104],"max":[0.5,0.03500000014901161,0.44999998807907104]},{"bufferView":1,"byteOffset":0,"componentType":5126,"count":24,"type":"VEC3"},{"bufferView":2,"byteOffset":0,"componentType":5123,"count":36,"type":"SCALAR"},{"bufferView":3,"byteOffset":0,"componentType":5126,"count":24,"type":"VEC3","min":[-0.49000000953674316,-0.25,-0.029999999329447746],"max":[0.49000000953674316,0.25,0.029999999329447746]},{"bufferView":4,"byteOffset":0,"componentType":5126,"count":24,"type":"VEC3"},{"bufferView":5,"byteOffset":0,"componentType":5123,"count":36,"type":"SCALAR"},{"bufferView":6,"byteOffset":0,"componentType":5126,"count":24,"type":"VEC3","min":[-0.49000000953674316,-0.03500000014901161,-0.019999999552965164],"max":[0.49000000953674316,0.03500000014901161,0.019999999552965164]},{"bufferView":7,"byteOffset":0,"componentType":5126,"count":24,"type":"VEC3"},{"bufferView":8,"byteOffset":0,"componentType":5123,"count":36,"type":"SCALAR"},{"bufferView":9,"byteOffset":0,"componentType":5126,"count":24,"type":"VEC3","min":[-0.029999999329447746,-0.2750000059604645,-0.029999999329447746],"max":[0.029999999329447746,0.2750000059604645,0.029999999329447746]},{"bufferView":10,"byteOffset":0,"componentType":5126,"count":24,"type":"VEC3"},{"bufferView":11,"byteOffset":0,"componentType":5123,"count":36,"type":"SCALAR"},{"bufferView":12,"byteOffset":0,"componentType":5126,"count":24,"type":"VEC3","min":[-0.029999999329447746,-0.2750000059604645,-0.029999999329447746],"max":[0.029999999329447746,0.2750000059604645,0.029999999329447746]},{"bufferView":13,"byteOffset":0,"componentType":5126,"count":24,"type":"VEC3"},{"bufferView":14,"byteOffset":0,"componentType":5123,"count":36,"type":"SCALAR"},{"bufferView":15,"byteOffset":0,"componentType":5126,"count":24,"type":"VEC3","min":[-0.029999999329447746,-0.2750000059604645,-0.029999999329447746],"max":[0.029999999329447746,0.2750000059604645,0.029999999329447746]},{"bufferView":16,"byteOffset":0,"componentType":5126,"count":24,"type":"VEC3"},{"bufferView":17,"byteOffset":0,"componentType":5123,"count":36,"type":"SCALAR"},{"bufferView":18,"byteOffset":0,"componentType":5126,"count":24,"type":"VEC3","min":[-0.029999999329447746,-0.2750000059604645,-0.029999999329447746],"max":[0.029999999329447746,0.2750000059604645,0.029999999329447746]},{"bufferView":19,"byteOffset":0,"componentType":5126,"count":24,"type":"VEC3"},{"bufferView":20,"byteOffset":0,"componentType":5123,"count":36,"type":"SCALAR"}],"bufferViews":[{"buffer":0,"byteOffset":0,"byteLength":288,"target":34962},{"buffer":0,"byteOffset":288,"byteLength":288,"target":34962},{"buffer":0,"byteOffset":4032,"byteLength":72,"target":34963},{"buffer":0,"byteOffset":576,"byteLength":288,"target":34962},{"buffer":0,"byteOffset":864,"byteLength":288,"target":34962},{"buffer":0,"byteOffset":4104,"byteLength":72,"target":34963},{"buffer":0,"byteOffset":1152,"byteLength":288,"target":34962},{"buffer":0,"byteOffset":1440,"byteLength":288,"target":34962},{"buffer":0,"byteOffset":4176,"byteLength":72,"target":34963},{"buffer":0,"byteOffset":1728,"byteLength":288,"target":34962},{"buffer":0,"byteOffset":2016,"byteLength":288,"target":34962},{"buffer":0,"byteOffset":4248,"byteLength":72,"target":34963},{"buffer":0,"byteOffset":2304,"byteLength":288,"target":34962},{"buffer":0,"byteOffset":2592,"byteLength":288,"target":34962},{"buffer":0,"byteOffset":4320,"byteLength":72,"target":34963},{"buffer":0,"byteOffset":2880,"byteLength":288,"target":34962},{"buffer":0,"byteOffset":3168,"byteLength":288,"target":34962},{"buffer":0,"byteOffset":4392,"byteLength":72,"target":34963},{"buffer":0,"byteOffset":3456,"byteLength":288,"target":34962},{"buffer":0,"byteOffset":3744,"byteLength":288,"target":34962},{"buffer":0,"byteOffset":4464,"byteLength":72,"target":34963}],"buffers":[{"byteLength":4536,"uri":"data:application/octet-stream;base64,"}]}