{"asset":{"version":"2.0","generator":"HomeDesigner model builder"},"scene":0,"scenes":[{"name":"Scene","nodes":[0,1,2,3]}],"nodes":[{"name":"top","mesh":0,"translation":[0,0.48,0]},{"name":"panel_L","mesh":1,"translation":[-0.47,0,0]},{"name":"panel_R","mesh":2,"translation":[0.47,0,0]},{"name":"stretcher","mesh":3,"translation":[0,-0.28,-0.42]}],"meshes":[{"name":"top","primitives":[{"attributes":{"POSITION":0,"NORMAL":1},"material":0,"mode":4,"indices":2}]},{"name":"panel_L","primitives":[{"attributes":{"POSITION":3,"NORMAL":4},"material":1,"mode":4,"indices":5}]},{"name":"panel_R","primitives":[{"attributes":{"POSITION":6,"NORMAL":7},"material":1,"mode":4,"indices":8}]},{"name":"stretcher","primitives":[{"attributes":{"POSITION":9,"NORMAL":10},"material":1,"mode":4,"indices":11}]}],"materials":[{"name":"top","pbrMetallicRoughness":{"baseColorFactor":[0.5775804404214573,0.3915724777393922,0.1878207722902346,1],"metallicFactor":0,"roughnessFactor":0.5},"doubleSided":false},{"name":"legs","pbrMetallicRoughness":{"baseColorFactor":[0.24620132669705552,0.24620132669705552,0.24620132669705552,1],"metallicFactor":0.7,"roughnessFactor":0.2},"doubleSided":false}],"accessors":[{"bufferView":0,"byteOffset":0,"componentType":5126,"count":24,"type":"VEC3","min":[-0.5,-0.02500000037252903,-0.44999998807907104],"max":[0.5,0.02500000037252903,0.44999998807907104]},{"bufferView":1,"byteOffset":0,"componentType":5126,"count":24,"type":"VEC3"},{"bufferView":2,"byteOffset":0,"componentType":5123,"count":36,"type":"SCALAR"},{"bufferView":3,"byteOffset":0,"componentType":5126,"count":24,"type":"VEC3","min":[-0.019999999552965164,-0.44999998807907104,-0.4399999976158142],"max":[0.019999999552965164,0.44999998807907104,0.4399999976158142]},{"bufferView":4,"byteOffset":0,"componentType":5126,"count":24,"type":"VEC3"},{"bufferView":5,"byteOffset":0,"componentType":5123,"count":36,"type":"SCALAR"},{"bufferView":6,"byteOffset":0,"componentType":5126,"count":24,"type":"VEC3","min":[-0.019999999552965164,-0.44999998807907104,-0.4399999976158142],"max":[0.019999999552965164,0.44999998807907104,0.4399999976158142]},{"bufferView":7,"byteOffset":0,"componentType":5126,"count":24,"type":"VEC3"},{"bufferView":8,"byteOffset":0,"componentType":5123,"count":36,"type":"SCALAR"},{"bufferView":9,"byteOffset":0,"componentType":5126,"count":24,"type":"VEC3","min":[-0.44999998807907104,-0.019999999552965164,-0.019999999552965164],"max":[0.44999998807907104,0.019999999552965164,0.019999999552965164]},{"bufferView":10,"byteOffset":0,"componentType":5126,"count":24,"type":"VEC3"},{"bufferView":11,"byteOffset":0,"componentType":5123,"count":36,"type":"SCALAR"}],"bufferViews":[{"buffer":0,"byteOffset":0,"byteLength":288,"target":34962},{"buffer":0,"byteOffset":288,"byteLength":288,"target":34962},{"buffer":0,"byteOffset":2304,"byteLength":72,"target":34963},{"buffer":0,"byteOffset":576,"byteLength":288,"target":34962},{"buffer":0,"byteOffset":864,"byteLength":288,"target":34962},{"buffer":0,"byteOffset":2376,"byteLength":72,"target":34963},{"buffer":0,"byteOffset":1152,"byteLength":288,"target":34962},{"buffer":0,"byteOffset":1440,"byteLength":288,"target":34962},{"buffer":0,"byteOffset":2448,"byteLength":72,"target":34963},{"buffer":0,"byteOffset":1728,"byteLength":288,"target":34962},{"buffer":0,"byteOffset":2016,"byteLength":288,"target":34962},{"buffer":0,"byteOffset":2520,"byteLength":72,"target":34963}],"buffers":[{"byteLength":2592,"uri":"data:application/octet-stream;base64,"}]}