{"asset":{"version":"2.0","generator":"HomeDesigner model builder"},"scene":0,"scenes":[{"name":"Scene","nodes":[0,1,2,3,4,5,6,7,8]}],"nodes":[{"name":"body","mesh":0},{"name":"drawer_line_0","mesh":1,"translation":[0,-0.35,0.45]},{"name":"handle_0","mesh":2,"translation":[0,-0.26,0.47]},{"name":"drawer_line_1","mesh":3,"translation":[0,-0.11999999999999997,0.45]},{"name":"handle_1","mesh":4,"translation":[0,-0.02999999999999997,0.47]},{"name":"drawer_line_2","mesh":5,"translation":[0,0.11000000000000004,0.45]},{"name":"handle_2","mesh":6,"translation":[0,0.20000000000000004,0.47]},{"name":"drawer_line_3","mesh":7,"translation":[0,0.3400000000000001,0.45]},{"name":"handle_3","mesh":8,"translation":[0,0.43000000000000005,0.47]}],"meshes":[{"name":"body","primitives":[{"attributes":{"POSITION":0,"NORMAL":1},"material":0,"mode":4,"indices":2}]},{"name":"drawer_line_0","primitives":[{"attributes":{"POSITION":3,"NORMAL":4},"material":1,"mode":4,"indices":5}]},{"name":"handle_0","primitives":[{"attributes":{"POSITION":6,"NORMAL":7},"material":1,"mode":4,"indices":8}]},{"name":"drawer_line_1","primitives":[{"attributes":{"POSITION":9,"NORMAL":10},"material":1,"mode":4,"indices":11}]},{"name":"handle_1","primitives":[{"attributes":{"POSITION":12,"NORMAL":13},"material":1,"mode":4,"indices":14}]},{"name":"drawer_line_2","primitives":[{"attributes":{"POSITION":15,"NORMAL":16},"material":1,"mode":4,"indices":17}]},{"name":"handle_2","primitives":[{"attributes":{"POSITION":18,"NORMAL":19},"material":1,"mode":4,"indices":20}]},{"name":"drawer_line_3","primitives":[{"attributes":{"POSITION":21,"NORMAL":22},"material":1,"mode":4,"indices":23}]},{"name":"handle_3","primitives":[{"attributes":{"POSITION":24,"NORMAL":25},"material":1,"mode":4,"indices":26}]}],"materials":[{"name":"wood","pbrMetallicRoughness":{"baseColorFactor":[0.4793201830913402,0.2917706498067336,0.14412847084818123,1],"metallicFactor":0,"roughnessFactor":0.65},"doubleSided":false},{"name":"handle","pbrMetallicRoughness":{"baseColorFactor":[0.13286832154414627,0.13286832154414627,0.13286832154414627,1],"metallicFactor":0.7,"roughnessFactor":0.3},"doubleSided":false}],"accessors":[{"bufferView":0,"byteOffset":0,"componentType":5126,"count":24,"type":"VEC3","min":[-0.5,-0.5,-0.44999998807907104],"max":[0.5,0.5,0.44999998807907104]},{"bufferView":1,"byteOffset":0,"componentType":5126,"count":24,"type":"VEC3"},{"bufferView":2,"byteOffset":0,"componentType":5123,"count":36,"type":"SCALAR"},{"bufferView":3,"byteOffset":0,"componentType":5126,"count":24,"type":"VEC3","min":[-0.49000000953674316,-0.009999999776482582,-0.02500000037252903],"max":[0.49000000953674316,0.009999999776482582,0.02500000037252903]},{"bufferView":4,"byteOffset":0,"componentType":5126,"count":24,"type":"VEC3"},{"bufferView":5,"byteOffset":0,"componentType":5123,"count":36,"type":"SCALAR"},{"bufferView":6,"byteOffset":0,"componentType":5126,"count":63,"type":"VEC3","min":[-0.029999999329447746,-0.029999999329447746,-0.029999999329447746],"max":[0.029999999329447746,0.029999999329447746,0.029999999329447746]},{"bufferView":7,"byteOffset":0,"componentType":5126,"count":63,"type":"VEC3"},{"bufferView":8,"byteOffset":0,"componentType":5123,"count":240,"type":"SCALAR"},{"bufferView":9,"byteOffset":0,"componentType":5126,"count":24,"type":"VEC3","min":[-0.49000000953674316,-0.009999999776482582,-0.02500000037252903],"max":[0.49000000953674316,0.009999999776482582,0.02500000037252903]},{"bufferView":10,"byteOffset":0,"componentType":5126,"count":24,"type":"VEC3"},{"bufferView":11,"byteOffset":0,"componentType":5123,"count":36,"type":"SCALAR"},{"bufferView":12,"byteOffset":0,"componentType":5126,"count":63,"type":"VEC3","min":[-0.029999999329447746,-0.029999999329447746,-0.029999999329447746],"max":[0.029999999329447746,0.029999999329447746,0.029999999329447746]},{"bufferView":13,"byteOffset":0,"componentType":5126,"count":63,"type":"VEC3"},{"bufferView":14,"byteOffset":0,"componentType":5123,"count":240,"type":"SCALAR"},{"bufferView":15,"byteOffset":0,"componentType":5126,"count":24,"type":"VEC3","min":[-0.49000000953674316,-0.009999999776482582,-0.02500000037252903],"max":[0.49000000953674316,0.009999999776482582,0.02500000037252903]},{"bufferView":16,"byteOffset":0,"componentType":5126,"count":24,"type":"VEC3"},{"bufferView":17,"byteOffset":0,"componentType":5123,"count":36,"type":"SCALAR"},{"bufferView":18,"byteOffset":0,"componentType":5126,"count":63,"type":"VEC3","min":[-0.029999999329447746,-0.029999999329447746,-0.029999999329447746],"max":[0.029999999329447746,0.029999999329447746,0.029999999329447746]},{"bufferView":19,"byteOffset":0,"componentType":5126,"count":63,"type":"VEC3"},{"bufferView":20,"byteOffset":0,"componentType":5123,"count":240,"type":"SCALAR"},{"bufferView":21,"byteOffset":0,"componentType":5126,"count":24,"type":"VEC3","min":[-0.49000000953674316,-0.009999999776482582,-0.02500000037252903],"max":[0.49000000953674316,0.009999999776482582,0.02500000037252903]},{"bufferView":22,"byteOffset":0,"componentType":5126,"count":24,"type":"VEC3"},{"bufferView":23,"byteOffset":0,"componentType":5123,"count":36,"type":"SCALAR"},{"bufferView":24,"byteOffset":0,"componentType":5126,"count":63,"type":"VEC3","min":[-0.029999999329447746,-0.029999999329447746,-0.029999999329447746],"max":[0.029999999329447746,0.029999999329447746,0.029999999329447746]},{"bufferView":25,"byteOffset":0,"componentType":5126,"count":63,"type":"VEC3"},{"bufferView":26,"byteOffset":0,"componentType":5123,"count":240,"type":"SCALAR"}],"bufferViews":[{"buffer":0,"byteOffset":0,"byteLength":288,"target":34962},{"buffer":0,"byteOffset":288,"byteLength":288,"target":34962},{"buffer":0,"byteOffset":8928,"byteLength":72,"target":34963},{"buffer":0,"byteOffset":576,"byteLength":288,"target":34962},{"buffer":0,"byteOffset":864,"byteLength":288,"target":34962},{"buffer":0,"byteOffset":9000,"byteLength":72,"target":34963},{"buffer":0,"byteOffset":1152,"byteLength":756,"target":34962},{"buffer":0,"byteOffset":1908,"byteLength":756,"target":34962},{"buffer":0,"byteOffset":9072,"byteLength":480,"target":34963},{"buffer":0,"byteOffset":2664,"byteLength":288,"target":34962},{"buffer":0,"byteOffset":2952,"byteLength":288,"target":34962},{"buffer":0,"byteOffset":9552,"byteLength":72,"target":34963},{"buffer":0,"byteOffset":3240,"byteLength":756,"target":34962},{"buffer":0,"byteOffset":3996,"byteLength":756,"target":34962},{"buffer":0,"byteOffset":9624,"byteLength":480,"target":34963},{"buffer":0,"byteOffset":4752,"byteLength":288,"target":34962},{"buffer":0,"byteOffset":5040,"byteLength":288,"target":34962},{"buffer":0,"byteOffset":10104,"byteLength":72,"target":34963},{"buffer":0,"byteOffset":5328,"byteLength":756,"target":34962},{"buffer":0,"byteOffset":6084,"byteLength":756,"target":34962},{"buffer":0,"byteOffset":10176,"byteLength":480,"target":34963},{"buffer":0,"byteOffset":6840,"byteLength":288,"target":34962},{"buffer":0,"byteOffset":7128,"byteLength":288,"target":34962},{"buffer":0,"byteOffset":10656,"byteLength":72,"target":34963},{"buffer":0,"byteOffset":7416,"byteLength":756,"target":34962},{"buffer":0,"byteOffset":8172,"byteLength":756,"target":34962},{"buffer":0,"byteOffset":10728,"byteLength":480,"target":34963}],"buffers":[{"byteLength":11208,"uri":"data:application/octet-stream;base64,"}]}