{"asset":{"version":"2.0","generator":"HomeDesigner model builder"},"scene":0,"scenes":[{"name":"Scene","nodes":[0,1,2]}],"nodes":[{"name":"body","mesh":0},{"name":"seam","mesh":1,"translation":[0,0.28,0]},{"name":"handle","mesh":2,"translation":[0.38,0.1,0.47]}],"meshes":[{"name":"body","primitives":[{"attributes":{"POSITION":0,"NORMAL":1},"material":0,"mode":4,"indices":2}]},{"name":"seam","primitives":[{"attributes":{"POSITION":3,"NORMAL":4},"material":1,"mode":4,"indices":5}]},{"name":"handle","primitives":[{"attributes":{"POSITION":6,"NORMAL":7},"material":2,"mode":4,"indices":8}]}],"materials":[{"name":"steel","pbrMetallicRoughness":{"baseColorFactor":[0.7454042095350284,0.7454042095350284,0.7454042095350284,1],"metallicFactor":0.7,"roughnessFactor":0.15},"doubleSided":false},{"name":"dark","pbrMetallicRoughness":{"baseColorFactor":[0.033104766565152086,0.033104766565152086,0.033104766565152086,1],"metallicFactor":0.5,"roughnessFactor":0.2},"doubleSided":false},{"name":"handle","pbrMetallicRoughness":{"baseColorFactor":[0.4019777798219466,0.4019777798219466,0.4019777798219466,1],"metallicFactor":0.9,"roughnessFactor":0.1},"doubleSided":false}],"accessors":[{"bufferView":0,"byteOffset":0,"componentType":5126,"count":24,"type":"VEC3","min":[-0.5,-0.5,-0.44999998807907104],"max":[0.5,0.5,0.44999998807907104]},{"bufferView":1,"byteOffset":0,"componentType":5126,"count":24,"type":"VEC3"},{"bufferView":2,"byteOffset":0,"componentType":5123,"count":36,"type":"SCALAR"},{"bufferView":3,"byteOffset":0,"componentType":5126,"count":24,"type":"VEC3","min":[-0.5,-0.009999999776482582,-0.46000000834465027],"max":[0.5,0.009999999776482582,0.46000000834465027]},{"bufferView":4,"byteOffset":0,"componentType":5126,"count":24,"type":"VEC3"},{"bufferView":5,"byteOffset":0,"componentType":5123,"count":36,"type":"SCALAR"},{"bufferView":6,"byteOffset":0,"componentType":5126,"count":64,"type":"VEC3","min":[-0.02377641201019287,-0.2750000059604645,-0.02500000037252903],"max":[0.02377641201019287,0.2750000059604645,0.02500000037252903]},{"bufferView":7,"byteOffset":0,"componentType":5126,"count":64,"type":"VEC3"},{"bufferView":8,"byteOffset":0,"componentType":5123,"count":120,"type":"SCALAR"}],"bufferViews":[{"buffer":0,"byteOffset":0,"byteLength":288,"target":34962},{"buffer":0,"byteOffset":288,"byteLength":288,"target":34962},{"buffer":0,"byteOffset":2688,"byteLength":72,"target":34963},{"buffer":0,"byteOffset":576,"byteLength":288,"target":34962},{"buffer":0,"byteOffset":864,"byteLength":288,"target":34962},{"buffer":0,"byteOffset":2760,"byteLength":72,"target":34963},{"buffer":0,"byteOffset":1152,"byteLength":768,"target":34962},{"buffer":0,"byteOffset":1920,"byteLength":768,"target":34962},{"buffer":0,"byteOffset":2832,"byteLength":240,"target":34963}],"buffers":[{"byteLength":3072,"uri":"data:application/octet-stream;base64,"}]}