{"asset":{"version":"2.0","generator":"HomeDesigner model builder"},"scene":0,"scenes":[{"name":"Scene","nodes":[0,1,2,3,4]}],"nodes":[{"name":"cabinet","mesh":0},{"name":"basin_outer","mesh":1,"translation":[0,0.43,0]},{"name":"basin_inner","mesh":2,"translation":[0,0.45,0]},{"name":"faucet_stem","mesh":3,"translation":[0,0.62,-0.1]},{"name":"faucet_spout","mesh":4,"translation":[0,0.65,0.02]}],"meshes":[{"name":"cabinet","primitives":[{"attributes":{"POSITION":0,"NORMAL":1},"material":0,"mode":4,"indices":2}]},{"name":"basin_outer","primitives":[{"attributes":{"POSITION":3,"NORMAL":4},"material":0,"mode":4,"indices":5}]},{"name":"basin_inner","primitives":[{"attributes":{"POSITION":6,"NORMAL":7},"material":1,"mode":4,"indices":8}]},{"name":"faucet_stem","primitives":[{"attributes":{"POSITION":9,"NORMAL":10},"material":1,"mode":4,"indices":11}]},{"name":"faucet_spout","primitives":[{"attributes":{"POSITION":12,"NORMAL":13},"material":1,"mode":4,"indices":14}]}],"materials":[{"name":"ceramic","pbrMetallicRoughness":{"baseColorFactor":[1,1,1,1],"metallicFactor":0,"roughnessFactor":0.05},"doubleSided":false},{"name":"steel","pbrMetallicRoughness":{"baseColorFactor":[0.4019777798219466,0.4019777798219466,0.4019777798219466,1],"metallicFactor":0.8,"roughnessFactor":0.15},"doubleSided":false}],"accessors":[{"bufferView":0,"byteOffset":0,"componentType":5126,"count":24,"type":"VEC3","min":[-0.5,-0.5,-0.44999998807907104],"max":[0.5,0.5,0.44999998807907104]},{"bufferView":1,"byteOffset":0,"componentType":5126,"count":24,"type":"VEC3"},{"bufferView":2,"byteOffset":0,"componentType":5123,"count":36,"type":"SCALAR"},{"bufferView":3,"byteOffset":0,"componentType":5126,"count":24,"type":"VEC3","min":[-0.3499999940395355,-0.07500000298023224,-0.2750000059604645],"max":[0.3499999940395355,0.07500000298023224,0.2750000059604645]},{"bufferView":4,"byteOffset":0,"componentType":5126,"count":24,"type":"VEC3"},{"bufferView":5,"byteOffset":0,"componentType":5123,"count":36,"type":"SCALAR"},{"bufferView":6,"byteOffset":0,"componentType":5126,"count":24,"type":"VEC3","min":[-0.30000001192092896,-0.06499999761581421,-0.22499999403953552],"max":[0.30000001192092896,0.06499999761581421,0.22499999403953552]},{"bufferView":7,"byteOffset":0,"componentType":5126,"count":24,"type":"VEC3"},{"bufferView":8,"byteOffset":0,"componentType":5123,"count":36,"type":"SCALAR"},{"bufferView":9,"byteOffset":0,"componentType":5126,"count":64,"type":"VEC3","min":[-0.02377641201019287,-0.10000000149011612,-0.02500000037252903],"max":[0.02377641201019287,0.10000000149011612,0.02500000037252903]},{"bufferView":10,"byteOffset":0,"componentType":5126,"count":64,"type":"VEC3"},{"bufferView":11,"byteOffset":0,"componentType":5123,"count":120,"type":"SCALAR"},{"bufferView":12,"byteOffset":0,"componentType":5126,"count":64,"type":"VEC3","min":[-0.014265847392380238,-0.07500000298023224,-0.014999999664723873],"max":[0.014265847392380238,0.07500000298023224,0.014999999664723873]},{"bufferView":13,"byteOffset":0,"componentType":5126,"count":64,"type":"VEC3"},{"bufferView":14,"byteOffset":0,"componentType":5123,"count":120,"type":"SCALAR"}],"bufferViews":[{"buffer":0,"byteOffset":0,"byteLength":288,"target":34962},{"buffer":0,"byteOffset":288,"byteLength":288,"target":34962},{"buffer":0,"byteOffset":4800,"byteLength":72,"target":34963},{"buffer":0,"byteOffset":576,"byteLength":288,"target":34962},{"buffer":0,"byteOffset":864,"byteLength":288,"target":34962},{"buffer":0,"byteOffset":4872,"byteLength":72,"target":34963},{"buffer":0,"byteOffset":1152,"byteLength":288,"target":34962},{"buffer":0,"byteOffset":1440,"byteLength":288,"target":34962},{"buffer":0,"byteOffset":4944,"byteLength":72,"target":34963},{"buffer":0,"byteOffset":1728,"byteLength":768,"target":34962},{"buffer":0,"byteOffset":2496,"byteLength":768,"target":34962},{"buffer":0,"byteOffset":5016,"byteLength":240,"target":34963},{"buffer":0,"byteOffset":3264,"byteLength":768,"target":34962},{"buffer":0,"byteOffset":4032,"byteLength":768,"target":34962},{"buffer":0,"byteOffset":5256,"byteLength":240,"target":34963}],"buffers":[{"byteLength":5496,"uri":"data:application/octet-stream;base64,"}]}