{"asset":{"version":"2.0","generator":"HomeDesigner model builder"},"scene":0,"scenes":[{"name":"Scene","nodes":[0,1,2,3,4,5,6,7]}],"nodes":[{"name":"seat","mesh":0,"translation":[0,-0.12,0.1]},{"name":"back","mesh":1,"translation":[0,0.12,-0.3]},{"name":"arm_L","mesh":2,"translation":[-0.42,-0.04,0.1]},{"name":"arm_R","mesh":3,"translation":[0.42,-0.04,0.1]},{"name":"leg","mesh":4,"translation":[-0.42,-0.3,0.3]},{"name":"leg","mesh":5,"translation":[0.42,-0.3,0.3]},{"name":"leg","mesh":6,"translation":[-0.42,-0.3,-0.22]},{"name":"leg","mesh":7,"translation":[0.42,-0.3,-0.22]}],"meshes":[{"name":"seat","primitives":[{"attributes":{"POSITION":0,"NORMAL":1},"material":0,"mode":4,"indices":2}]},{"name":"back","primitives":[{"attributes":{"POSITION":3,"NORMAL":4},"material":0,"mode":4,"indices":5}]},{"name":"arm_L","primitives":[{"attributes":{"POSITION":6,"NORMAL":7},"material":0,"mode":4,"indices":8}]},{"name":"arm_R","primitives":[{"attributes":{"POSITION":9,"NORMAL":10},"material":0,"mode":4,"indices":11}]},{"name":"leg","primitives":[{"attributes":{"POSITION":12,"NORMAL":13},"material":1,"mode":4,"indices":14}]},{"name":"leg","primitives":[{"attributes":{"POSITION":15,"NORMAL":16},"material":1,"mode":4,"indices":17}]},{"name":"leg","primitives":[{"attributes":{"POSITION":18,"NORMAL":19},"material":1,"mode":4,"indices":20}]},{"name":"leg","primitives":[{"attributes":{"POSITION":21,"NORMAL":22},"material":1,"mode":4,"indices":23}]}],"materials":[{"name":"fabric","pbrMetallicRoughness":{"baseColorFactor":[0.19806931954941637,0.14702726648767014,0.2663556047920505,1],"metallicFactor":0,"roughnessFactor":0.9},"doubleSided":false},{"name":"legs","pbrMetallicRoughness":{"baseColorFactor":[0.06847816983662762,0.03820437158923601,0.02121901037134225,1],"metallicFactor":0,"roughnessFactor":0.6},"doubleSided":false}],"accessors":[{"bufferView":0,"byteOffset":0,"componentType":5126,"count":24,"type":"VEC3","min":[-0.5,-0.10999999940395355,-0.30000001192092896],"max":[0.5,0.10999999940395355,0.30000001192092896]},{"bufferView":1,"byteOffset":0,"componentType":5126,"count":24,"type":"VEC3"},{"bufferView":2,"byteOffset":0,"componentType":5123,"count":36,"type":"SCALAR"},{"bufferView":3,"byteOffset":0,"componentType":5126,"count":24,"type":"VEC3","min":[-0.5,-0.25,-0.09000000357627869],"max":[0.5,0.25,0.09000000357627869]},{"bufferView":4,"byteOffset":0,"componentType":5126,"count":24,"type":"VEC3"},{"bufferView":5,"byteOffset":0,"componentType":5123,"count":36,"type":"SCALAR"},{"bufferView":6,"byteOffset":0,"componentType":5126,"count":24,"type":"VEC3","min":[-0.07500000298023224,-0.1899999976158142,-0.30000001192092896],"max":[0.07500000298023224,0.1899999976158142,0.30000001192092896]},{"bufferView":7,"byteOffset":0,"componentType":5126,"count":24,"type":"VEC3"},{"bufferView":8,"byteOffset":0,"componentType":5123,"count":36,"type":"SCALAR"},{"bufferView":9,"byteOffset":0,"componentType":5126,"count":24,"type":"VEC3","min":[-0.07500000298023224,-0.1899999976158142,-0.30000001192092896],"max":[0.07500000298023224,0.1899999976158142,0.30000001192092896]},{"bufferView":10,"byteOffset":0,"componentType":5126,"count":24,"type":"VEC3"},{"bufferView":11,"byteOffset":0,"componentType":5123,"count":36,"type":"SCALAR"},{"bufferView":12,"byteOffset":0,"componentType":5126,"count":52,"type":"VEC3","min":[-0.03999999910593033,-0.07500000298023224,-0.03999999910593033],"max":[0.03999999910593033,0.07500000298023224,0.03999999910593033]},{"bufferView":13,"byteOffset":0,"componentType":5126,"count":52,"type":"VEC3"},{"bufferView":14,"byteOffset":0,"componentType":5123,"count":96,"type":"SCALAR"},{"bufferView":15,"byteOffset":0,"componentType":5126,"count":52,"type":"VEC3","min":[-0.03999999910593033,-0.07500000298023224,-0.03999999910593033],"max":[0.03999999910593033,0.07500000298023224,0.03999999910593033]},{"bufferView":16,"byteOffset":0,"componentType":5126,"count":52,"type":"VEC3"},{"bufferView":17,"byteOffset":0,"componentType":5123,"count":96,"type":"SCALAR"},{"bufferView":18,"byteOffset":0,"componentType":5126,"count":52,"type":"VEC3","min":[-0.03999999910593033,-0.07500000298023224,-0.03999999910593033],"max":[0.03999999910593033,0.07500000298023224,0.03999999910593033]},{"bufferView":19,"byteOffset":0,"componentType":5126,"count":52,"type":"VEC3"},{"bufferView":20,"byteOffset":0,"componentType":5123,"count":96,"type":"SCALAR"},{"bufferView":21,"byteOffset":0,"componentType":5126,"count":52,"type":"VEC3","min":[-0.03999999910593033,-0.07500000298023224,-0.03999999910593033],"max":[0.03999999910593033,0.07500000298023224,0.03999999910593033]},{"bufferView":22,"byteOffset":0,"componentType":5126,"count":52,"type":"VEC3"},{"bufferView":23,"byteOffset":0,"componentType":5123,"count":96,"type":"SCALAR"}],"bufferViews":[{"buffer":0,"byteOffset":0,"byteLength":288,"target":34962},{"buffer":0,"byteOffset":288,"byteLength":288,"target":34962},{"buffer":0,"byteOffset":7296,"byteLength":72,"target":34963},{"buffer":0,"byteOffset":576,"byteLength":288,"target":34962},{"buffer":0,"byteOffset":864,"byteLength":288,"target":34962},{"buffer":0,"byteOffset":7368,"byteLength":72,"target":34963},{"buffer":0,"byteOffset":1152,"byteLength":288,"target":34962},{"buffer":0,"byteOffset":1440,"byteLength":288,"target":34962},{"buffer":0,"byteOffset":7440,"byteLength":72,"target":34963},{"buffer":0,"byteOffset":1728,"byteLength":288,"target":34962},{"buffer":0,"byteOffset":2016,"byteLength":288,"target":34962},{"buffer":0,"byteOffset":7512,"byteLength":72,"target":34963},{"buffer":0,"byteOffset":2304,"byteLength":624,"target":34962},{"buffer":0,"byteOffset":2928,"byteLength":624,"target":34962},{"buffer":0,"byteOffset":7584,"byteLength":192,"target":34963},{"buffer":0,"byteOffset":3552,"byteLength":624,"target":34962},{"buffer":0,"byteOffset":4176,"byteLength":624,"target":34962},{"buffer":0,"byteOffset":7776,"byteLength":192,"target":34963},{"buffer":0,"byteOffset":4800,"byteLength":624,"target":34962},{"buffer":0,"byteOffset":5424,"byteLength":624,"target":34962},{"buffer":0,"byteOffset":7968,"byteLength":192,"target":34963},{"buffer":0,"byteOffset":6048,"byteLength":624,"target":34962},{"buffer":0,"byteOffset":6672,"byteLength":624,"target":34962},{"buffer":0,"byteOffset":8160,"byteLength":192,"target":34963}],"buffers":[{"byteLength":8352,"uri":"data:application/octet-stream;base64,"}]}