{"asset":{"version":"2.0","generator":"HomeDesigner model builder"},"scene":0,"scenes":[{"name":"Scene","nodes":[0,1,2,3,4,5,6,7,8,9,10,11,12,13,14]}],"nodes":[{"name":"step_0","mesh":0,"translation":[0,-0.45,-0.45]},{"name":"step_1","mesh":1,"translation":[0,-0.35,-0.35]},{"name":"step_2","mesh":2,"translation":[0,-0.25,-0.25]},{"name":"step_3","mesh":3,"translation":[0,-0.14999999999999997,-0.14999999999999997]},{"name":"step_4","mesh":4,"translation":[0,-0.04999999999999999,-0.04999999999999999]},{"name":"step_5","mesh":5,"translation":[0,0.050000000000000044,0.050000000000000044]},{"name":"step_6","mesh":6,"translation":[0,0.15000000000000002,0.15000000000000002]},{"name":"step_7","mesh":7,"translation":[0,0.25,0.25]},{"name":"step_8","mesh":8,"translation":[0,0.3500000000000001,0.3500000000000001]},{"name":"step_9","mesh":9,"translation":[0,0.45000000000000007,0.45000000000000007]},{"name":"post_0","mesh":10,"translation":[0.47,-0.5,-0.5]},{"name":"post_1","mesh":11,"translation":[0.47,-0.16666666666666669,-0.16666666666666669]},{"name":"post_2","mesh":12,"translation":[0.47,0.16666666666666663,0.16666666666666663]},{"name":"post_3","mesh":13,"translation":[0.47,0.5,0.5]},{"name":"handrail","mesh":14,"translation":[0.47,0.08,0]}],"meshes":[{"name":"step_0","primitives":[{"attributes":{"POSITION":0,"NORMAL":1},"material":0,"mode":4,"indices":2}]},{"name":"step_1","primitives":[{"attributes":{"POSITION":3,"NORMAL":4},"material":0,"mode":4,"indices":5}]},{"name":"step_2","primitives":[{"attributes":{"POSITION":6,"NORMAL":7},"material":0,"mode":4,"indices":8}]},{"name":"step_3","primitives":[{"attributes":{"POSITION":9,"NORMAL":10},"material":0,"mode":4,"indices":11}]},{"name":"step_4","primitives":[{"attributes":{"POSITION":12,"NORMAL":13},"material":0,"mode":4,"indices":14}]},{"name":"step_5","primitives":[{"attributes":{"POSITION":15,"NORMAL":16},"material":0,"mode":4,"indices":17}]},{"name":"step_6","primitives":[{"attributes":{"POSITION":18,"NORMAL":19},"material":0,"mode":4,"indices":20}]},{"name":"step_7","primitives":[{"attributes":{"POSITION":21,"NORMAL":22},"material":0,"mode":4,"indices":23}]},{"name":"step_8","primitives":[{"attributes":{"POSITION":24,"NORMAL":25},"material":0,"mode":4,"indices":26}]},{"name":"step_9","primitives":[{"attributes":{"POSITION":27,"NORMAL":28},"material":0,"mode":4,"indices":29}]},{"name":"post_0","primitives":[{"attributes":{"POSITION":30,"NORMAL":31},"material":1,"mode":4,"indices":32}]},{"name":"post_1","primitives":[{"attributes":{"POSITION":33,"NORMAL":34},"material":1,"mode":4,"indices":35}]},{"name":"post_2","primitives":[{"attributes":{"POSITION":36,"NORMAL":37},"material":1,"mode":4,"indices":38}]},{"name":"post_3","primitives":[{"attributes":{"POSITION":39,"NORMAL":40},"material":1,"mode":4,"indices":41}]},{"name":"handrail","primitives":[{"attributes":{"POSITION":42,"NORMAL":43},"material":1,"mode":4,"indices":44}]}],"materials":[{"name":"wood","pbrMetallicRoughness":{"baseColorFactor":[0.4793201830913402,0.3005437944049895,0.14412847084818123,1],"metallicFactor":0,"roughnessFactor":0.75},"doubleSided":false},{"name":"railing","pbrMetallicRoughness":{"baseColorFactor":[0.24620132669705552,0.24620132669705552,0.24620132669705552,1],"metallicFactor":0.6,"roughnessFactor":0.2},"doubleSided":false}],"accessors":[{"bufferView":0,"byteOffset":0,"componentType":5126,"count":24,"type":"VEC3","min":[-0.5,-0.05000000074505806,-0.05000000074505806],"max":[0.5,0.05000000074505806,0.05000000074505806]},{"bufferView":1,"byteOffset":0,"componentType":5126,"count":24,"type":"VEC3"},{"bufferView":2,"byteOffset":0,"componentType":5123,"count":36,"type":"SCALAR"},{"bufferView":3,"byteOffset":0,"componentType":5126,"count":24,"type":"VEC3","min":[-0.5,-0.05000000074505806,-0.05000000074505806],"max":[0.5,0.05000000074505806,0.05000000074505806]},{"bufferView":4,"byteOffset":0,"componentType":5126,"count":24,"type":"VEC3"},{"bufferView":5,"byteOffset":0,"componentType":5123,"count":36,"type":"SCALAR"},{"bufferView":6,"byteOffset":0,"componentType":5126,"count":24,"type":"VEC3","min":[-0.5,-0.05000000074505806,-0.05000000074505806],"max":[0.5,0.05000000074505806,0.05000000074505806]},{"bufferView":7,"byteOffset":0,"componentType":5126,"count":24,"type":"VEC3"},{"bufferView":8,"byteOffset":0,"componentType":5123,"count":36,"type":"SCALAR"},{"bufferView":9,"byteOffset":0,"componentType":5126,"count":24,"type":"VEC3","min":[-0.5,-0.05000000074505806,-0.05000000074505806],"max":[0.5,0.05000000074505806,0.05000000074505806]},{"bufferView":10,"byteOffset":0,"componentType":5126,"count":24,"type":"VEC3"},{"bufferView":11,"byteOffset":0,"componentType":5123,"count":36,"type":"SCALAR"},{"bufferView":12,"byteOffset":0,"componentType":5126,"count":24,"type":"VEC3","min":[-0.5,-0.05000000074505806,-0.05000000074505806],"max":[0.5,0.05000000074505806,0.05000000074505806]},{"bufferView":13,"byteOffset":0,"componentType":5126,"count":24,"type":"VEC3"},{"bufferView":14,"byteOffset":0,"componentType":5123,"count":36,"type":"SCALAR"},{"bufferView":15,"byteOffset":0,"componentType":5126,"count":24,"type":"VEC3","min":[-0.5,-0.05000000074505806,-0.05000000074505806],"max":[0.5,0.05000000074505806,0.05000000074505806]},{"bufferView":16,"byteOffset":0,"componentType":5126,"count":24,"type":"VEC3"},{"bufferView":17,"byteOffset":0,"componentType":5123,"count":36,"type":"SCALAR"},{"bufferView":18,"byteOffset":0,"componentType":5126,"count":24,"type":"VEC3","min":[-0.5,-0.05000000074505806,-0.05000000074505806],"max":[0.5,0.05000000074505806,0.05000000074505806]},{"bufferView":19,"byteOffset":0,"componentType":5126,"count":24,"type":"VEC3"},{"bufferView":20,"byteOffset":0,"componentType":5123,"count":36,"type":"SCALAR"},{"bufferView":21,"byteOffset":0,"componentType":5126,"count":24,"type":"VEC3","min":[-0.5,-0.05000000074505806,-0.05000000074505806],"max":[0.5,0.05000000074505806,0.05000000074505806]},{"bufferView":22,"byteOffset":0,"componentType":5126,"count":24,"type":"VEC3"},{"bufferView":23,"byteOffset":0,"componentType":5123,"count":36,"type":"SCALAR"},{"bufferView":24,"byteOffset":0,"componentType":5126,"count":24,"type":"VEC3","min":[-0.5,-0.05000000074505806,-0.05000000074505806],"max":[0.5,0.05000000074505806,0.05000000074505806]},{"bufferView":25,"byteOffset":0,"componentType":5126,"count":24,"type":"VEC3"},{"bufferView":26,"byteOffset":0,"componentType":5123,"count":36,"type":"SCALAR"},{"bufferView":27,"byteOffset":0,"componentType":5126,"count":24,"type":"VEC3","min":[-0.5,-0.05000000074505806,-0.05000000074505806],"max":[0.5,0.05000000074505806,0.05000000074505806]},{"bufferView":28,"byteOffset":0,"componentType":5126,"count":24,"type":"VEC3"},{"bufferView":29,"byteOffset":0,"componentType":5123,"count":36,"type":"SCALAR"},{"bufferView":30,"byteOffset":0,"componentType":5126,"count":52,"type":"VEC3","min":[-0.029999999329447746,-0.32499998807907104,-0.029999999329447746],"max":[0.029999999329447746,0.32499998807907104,0.029999999329447746]},{"bufferView":31,"byteOffset":0,"componentType":5126,"count":52,"type":"VEC3"},{"bufferView":32,"byteOffset":0,"componentType":5123,"count":96,"type":"SCALAR"},{"bufferView":33,"byteOffset":0,"componentType":5126,"count":52,"type":"VEC3","min":[-0.029999999329447746,-0.32499998807907104,-0.029999999329447746],"max":[0.029999999329447746,0.32499998807907104,0.029999999329447746]},{"bufferView":34,"byteOffset":0,"componentType":5126,"count":52,"type":"VEC3"},{"bufferView":35,"byteOffset":0,"componentType":5123,"count":96,"type":"SCALAR"},{"bufferView":36,"byteOffset":0,"componentType":5126,"count":52,"type":"VEC3","min":[-0.029999999329447746,-0.32499998807907104,-0.029999999329447746],"max":[0.029999999329447746,0.32499998807907104,0.029999999329447746]},{"bufferView":37,"byteOffset":0,"componentType":5126,"count":52,"type":"VEC3"},{"bufferView":38,"byteOffset":0,"componentType":5123,"count":96,"type":"SCALAR"},{"bufferView":39,"byteOffset":0,"componentType":5126,"count":52,"type":"VEC3","min":[-0.029999999329447746,-0.32499998807907104,-0.029999999329447746],"max":[0.029999999329447746,0.32499998807907104,0.029999999329447746]},{"bufferView":40,"byteOffset":0,"componentType":5126,"count":52,"type":"VEC3"},{"bufferView":41,"byteOffset":0,"componentType":5123,"count":96,"type":"SCALAR"},{"bufferView":42,"byteOffset":0,"componentType":5126,"count":24,"type":"VEC3","min":[-0.019999999552965164,-0.019999999552965164,-0.5249999761581421],"max":[0.019999999552965164,0.019999999552965164,0.5249999761581421]},{"bufferView":43,"byteOffset":0,"componentType":5126,"count":24,"type":"VEC3"},{"bufferView":44,"byteOffset":0,"componentType":5123,"count":36,"type":"SCALAR"}],"bufferViews":[{"buffer":0,"byteOffset":0,"byteLength":288,"target":34962},{"buffer":0,"byteOffset":288,"byteLength":288,"target":34962},{"buffer":0,"byteOffset":11328,"byteLength":72,"target":34963},{"buffer":0,"byteOffset":576,"byteLength":288,"target":34962},{"buffer":0,"byteOffset":864,"byteLength":288,"target":34962},{"buffer":0,"byteOffset":11400,"byteLength":72,"target":34963},{"buffer":0,"byteOffset":1152,"byteLength":288,"target":34962},{"buffer":0,"byteOffset":1440,"byteLength":288,"target":34962},{"buffer":0,"byteOffset":11472,"byteLength":72,"target":34963},{"buffer":0,"byteOffset":1728,"byteLength":288,"target":34962},{"buffer":0,"byteOffset":2016,"byteLength":288,"target":34962},{"buffer":0,"byteOffset":11544,"byteLength":72,"target":34963},{"buffer":0,"byteOffset":2304,"byteLength":288,"target":34962},{"buffer":0,"byteOffset":2592,"byteLength":288,"target":34962},{"buffer":0,"byteOffset":11616,"byteLength":72,"target":34963},{"buffer":0,"byteOffset":2880,"byteLength":288,"target":34962},{"buffer":0,"byteOffset":3168,"byteLength":288,"target":34962},{"buffer":0,"byteOffset":11688,"byteLength":72,"target":34963},{"buffer":0,"byteOffset":3456,"byteLength":288,"target":34962},{"buffer":0,"byteOffset":3744,"byteLength":288,"target":34962},{"buffer":0,"byteOffset":11760,"byteLength":72,"target":34963},{"buffer":0,"byteOffset":4032,"byteLength":288,"target":34962},{"buffer":0,"byteOffset":4320,"byteLength":288,"target":34962},{"buffer":0,"byteOffset":11832,"byteLength":72,"target":34963},{"buffer":0,"byteOffset":4608,"byteLength":288,"target":34962},{"buffer":0,"byteOffset":4896,"byteLength":288,"target":34962},{"buffer":0,"byteOffset":11904,"byteLength":72,"target":34963},{"buffer":0,"byteOffset":5184,"byteLength":288,"target":34962},{"buffer":0,"byteOffset":5472,"byteLength":288,"target":34962},{"buffer":0,"byteOffset":11976,"byteLength":72,"target":34963},{"buffer":0,"byteOffset":5760,"byteLength":624,"target":34962},{"buffer":0,"byteOffset":6384,"byteLength":624,"target":34962},{"buffer":0,"byteOffset":12048,"byteLength":192,"target":34963},{"buffer":0,"byteOffset":7008,"byteLength":624,"target":34962},{"buffer":0,"byteOffset":7632,"byteLength":624,"target":34962},{"buffer":0,"byteOffset":12240,"byteLength":192,"target":34963},{"buffer":0,"byteOffset":8256,"byteLength":624,"target":34962},{"buffer":0,"byteOffset":8880,"byteLength":624,"target":34962},{"buffer":0,"byteOffset":12432,"byteLength":192,"target":34963},{"buffer":0,"byteOffset":9504,"byteLength":624,"target":34962},{"buffer":0,"byteOffset":10128,"byteLength":624,"target":34962},{"buffer":0,"byteOffset":12624,"byteLength":192,"target":34963},{"buffer":0,"byteOffset":10752,"byteLength":288,"target":34962},{"buffer":0,"byteOffset":11040,"byteLength":288,"target":34962},{"buffer":0,"byteOffset":12816,"byteLength":72,"target":34963}],"buffers":[{"byteLength":12888,"uri":"data:application/octet-stream;base64,"}]}