{"asset":{"version":"2.0","generator":"HomeDesigner model builder"},"scene":0,"scenes":[{"name":"Scene","nodes":[0,1,2,3,4,5,6,7,8,9,10,11,12]}],"nodes":[{"name":"body","mesh":0},{"name":"burner","mesh":1,"translation":[-0.25,0.515,-0.2]},{"name":"ring","mesh":2,"translation":[-0.25,0.52,-0.2]},{"name":"burner","mesh":3,"translation":[0.25,0.515,-0.2]},{"name":"ring","mesh":4,"translation":[0.25,0.52,-0.2]},{"name":"burner","mesh":5,"translation":[-0.25,0.515,0.2]},{"name":"ring","mesh":6,"translation":[-0.25,0.52,0.2]},{"name":"burner","mesh":7,"translation":[0.25,0.515,0.2]},{"name":"ring","mesh":8,"translation":[0.25,0.52,0.2]},{"name":"knob_0","mesh":9,"translation":[-0.3,-0.15,0.47]},{"name":"knob_1","mesh":10,"translation":[-0.09999999999999998,-0.15,0.47]},{"name":"knob_2","mesh":11,"translation":[0.10000000000000003,-0.15,0.47]},{"name":"knob_3","mesh":12,"translation":[0.3000000000000001,-0.15,0.47]}],"meshes":[{"name":"body","primitives":[{"attributes":{"POSITION":0,"NORMAL":1},"material":0,"mode":4,"indices":2}]},{"name":"burner","primitives":[{"attributes":{"POSITION":3,"NORMAL":4},"material":1,"mode":4,"indices":5}]},{"name":"ring","primitives":[{"attributes":{"POSITION":6,"NORMAL":7},"material":1,"mode":4,"indices":8}]},{"name":"burner","primitives":[{"attributes":{"POSITION":9,"NORMAL":10},"material":1,"mode":4,"indices":11}]},{"name":"ring","primitives":[{"attributes":{"POSITION":12,"NORMAL":13},"material":1,"mode":4,"indices":14}]},{"name":"burner","primitives":[{"attributes":{"POSITION":15,"NORMAL":16},"material":1,"mode":4,"indices":17}]},{"name":"ring","primitives":[{"attributes":{"POSITION":18,"NORMAL":19},"material":1,"mode":4,"indices":20}]},{"name":"burner","primitives":[{"attributes":{"POSITION":21,"NORMAL":22},"material":1,"mode":4,"indices":23}]},{"name":"ring","primitives":[{"attributes":{"POSITION":24,"NORMAL":25},"material":1,"mode":4,"indices":26}]},{"name":"knob_0","primitives":[{"attributes":{"POSITION":27,"NORMAL":28},"material":2,"mode":4,"indices":29}]},{"name":"knob_1","primitives":[{"attributes":{"POSITION":30,"NORMAL":31},"material":2,"mode":4,"indices":32}]},{"name":"knob_2","primitives":[{"attributes":{"POSITION":33,"NORMAL":34},"material":2,"mode":4,"indices":35}]},{"name":"knob_3","primitives":[{"attributes":{"POSITION":36,"NORMAL":37},"material":2,"mode":4,"indices":38}]}],"materials":[{"name":"metal","pbrMetallicRoughness":{"baseColorFactor":[0.09084171117479915,0.09084171117479915,0.09084171117479915,1],"metallicFactor":0.6,"roughnessFactor":0.3},"doubleSided":false},{"name":"burner","pbrMetallicRoughness":{"baseColorFactor":[0.010329823026364548,0.010329823026364548,0.010329823026364548,1],"metallicFactor":0,"roughnessFactor":0.7},"doubleSided":false},{"name":"knob","pbrMetallicRoughness":{"baseColorFactor":[0.033104766565152086,0.033104766565152086,0.033104766565152086,1],"metallicFactor":0.3,"roughnessFactor":0.4},"doubleSided":false}],"accessors":[{"bufferView":0,"byteOffset":0,"componentType":5126,"count":24,"type":"VEC3","min":[-0.5,-0.5,-0.44999998807907104],"max":[0.5,0.5,0.44999998807907104]},{"bufferView":1,"byteOffset":0,"componentType":5126,"count":24,"type":"VEC3"},{"bufferView":2,"byteOffset":0,"componentType":5123,"count":36,"type":"SCALAR"},{"bufferView":3,"byteOffset":0,"componentType":5126,"count":76,"type":"VEC3","min":[-0.12999999523162842,-0.014999999664723873,-0.12999999523162842],"max":[0.12999999523162842,0.014999999664723873,0.12999999523162842]},{"bufferView":4,"byteOffset":0,"componentType":5126,"count":76,"type":"VEC3"},{"bufferView":5,"byteOffset":0,"componentType":5123,"count":144,"type":"SCALAR"},{"bufferView":6,"byteOffset":0,"componentType":5126,"count":91,"type":"VEC3","min":[-0.10499999672174454,-0.10499999672174454,-0.021650634706020355],"max":[0.10499999672174454,0.10499999672174454,0.021650634706020355]},{"bufferView":7,"byteOffset":0,"componentType":5126,"count":91,"type":"VEC3"},{"bufferView":8,"byteOffset":0,"componentType":5123,"count":432,"type":"SCALAR"},{"bufferView":9,"byteOffset":0,"componentType":5126,"count":76,"type":"VEC3","min":[-0.12999999523162842,-0.014999999664723873,-0.12999999523162842],"max":[0.12999999523162842,0.014999999664723873,0.12999999523162842]},{"bufferView":10,"byteOffset":0,"componentType":5126,"count":76,"type":"VEC3"},{"bufferView":11,"byteOffset":0,"componentType":5123,"count":144,"type":"SCALAR"},{"bufferView":12,"byteOffset":0,"componentType":5126,"count":91,"type":"VEC3","min":[-0.10499999672174454,-0.10499999672174454,-0.021650634706020355],"max":[0.10499999672174454,0.10499999672174454,0.021650634706020355]},{"bufferView":13,"byteOffset":0,"componentType":5126,"count":91,"type":"VEC3"},{"bufferView":14,"byteOffset":0,"componentType":5123,"count":432,"type":"SCALAR"},{"bufferView":15,"byteOffset":0,"componentType":5126,"count":76,"type":"VEC3","min":[-0.12999999523162842,-0.014999999664723873,-0.12999999523162842],"max":[0.12999999523162842,0.014999999664723873,0.12999999523162842]},{"bufferView":16,"byteOffset":0,"componentType":5126,"count":76,"type":"VEC3"},{"bufferView":17,"byteOffset":0,"componentType":5123,"count":144,"type":"SCALAR"},{"bufferView":18,"byteOffset":0,"componentType":5126,"count":91,"type":"VEC3","min":[-0.10499999672174454,-0.10499999672174454,-0.021650634706020355],"max":[0.10499999672174454,0.10499999672174454,0.021650634706020355]},{"bufferView":19,"byteOffset":0,"componentType":5126,"count":91,"type":"VEC3"},{"bufferView":20,"byteOffset":0,"componentType":5123,"count":432,"type":"SCALAR"},{"bufferView":21,"byteOffset":0,"componentType":5126,"count":76,"type":"VEC3","min":[-0.12999999523162842,-0.014999999664723873,-0.12999999523162842],"max":[0.12999999523162842,0.014999999664723873,0.12999999523162842]},{"bufferView":22,"byteOffset":0,"componentType":5126,"count":76,"type":"VEC3"},{"bufferView":23,"byteOffset":0,"componentType":5123,"count":144,"type":"SCALAR"},{"bufferView":24,"byteOffset":0,"componentType":5126,"count":91,"type":"VEC3","min":[-0.10499999672174454,-0.10499999672174454,-0.021650634706020355],"max":[0.10499999672174454,0.10499999672174454,0.021650634706020355]},{"bufferView":25,"byteOffset":0,"componentType":5126,"count":91,"type":"VEC3"},{"bufferView":26,"byteOffset":0,"componentType":5123,"count":432,"type":"SCALAR"},{"bufferView":27,"byteOffset":0,"componentType":5126,"count":52,"type":"VEC3","min":[-0.03999999910593033,-0.029999999329447746,-0.03999999910593033],"max":[0.03999999910593033,0.029999999329447746,0.03999999910593033]},{"bufferView":28,"byteOffset":0,"componentType":5126,"count":52,"type":"VEC3"},{"bufferView":29,"byteOffset":0,"componentType":5123,"count":96,"type":"SCALAR"},{"bufferView":30,"byteOffset":0,"componentType":5126,"count":52,"type":"VEC3","min":[-0.03999999910593033,-0.029999999329447746,-0.03999999910593033],"max":[0.03999999910593033,0.029999999329447746,0.03999999910593033]},{"bufferView":31,"byteOffset":0,"componentType":5126,"count":52,"type":"VEC3"},{"bufferView":32,"byteOffset":0,"componentType":5123,"count":96,"type":"SCALAR"},{"bufferView":33,"byteOffset":0,"componentType":5126,"count":52,"type":"VEC3","min":[-0.03999999910593033,-0.029999999329447746,-0.03999999910593033],"max":[0.03999999910593033,0.029999999329447746,0.03999999910593033]},{"bufferView":34,"byteOffset":0,"componentType":5126,"count":52,"type":"VEC3"},{"bufferView":35,"byteOffset":0,"componentType":5123,"count":96,"type":"SCALAR"},{"bufferView":36,"byteOffset":0,"componentType":5126,"count":52,"type":"VEC3","min":[-0.03999999910593033,-0.029999999329447746,-0.03999999910593033],"max":[0.03999999910593033,0.029999999329447746,0.03999999910593033]},{"bufferView":37,"byteOffset":0,"componentType":5126,"count":52,"type":"VEC3"},{"bufferView":38,"byteOffset":0,"componentType":5123,"count":96,"type":"SCALAR"}],"bufferViews":[{"buffer":0,"byteOffset":0,"byteLength":288,"target":34962},{"buffer":0,"byteOffset":288,"byteLength":288,"target":34962},{"buffer":0,"byteOffset":21600,"byteLength":72,"target":34963},{"buffer":0,"byteOffset":576,"byteLength":912,"target":34962},{"buffer":0,"byteOffset":1488,"byteLength":912,"target":34962},{"buffer":0,"byteOffset":21672,"byteLength":288,"target":34963},{"buffer":0,"byteOffset":2400,"byteLength":1092,"target":34962},{"buffer":0,"byteOffset":3492,"byteLength":1092,"target":34962},{"buffer":0,"byteOffset":21960,"byteLength":864,"target":34963},{"buffer":0,"byteOffset":4584,"byteLength":912,"target":34962},{"buffer":0,"byteOffset":5496,"byteLength":912,"target":34962},{"buffer":0,"byteOffset":22824,"byteLength":288,"target":34963},{"buffer":0,"byteOffset":6408,"byteLength":1092,"target":34962},{"buffer":0,"byteOffset":7500,"byteLength":1092,"target":34962},{"buffer":0,"byteOffset":23112,"byteLength":864,"target":34963},{"buffer":0,"byteOffset":8592,"byteLength":912,"target":34962},{"buffer":0,"byteOffset":9504,"byteLength":912,"target":34962},{"buffer":0,"byteOffset":23976,"byteLength":288,"target":34963},{"buffer":0,"byteOffset":10416,"byteLength":1092,"target":34962},{"buffer":0,"byteOffset":11508,"byteLength":1092,"target":34962},{"buffer":0,"byteOffset":24264,"byteLength":864,"target":34963},{"buffer":0,"byteOffset":12600,"byteLength":912,"target":34962},{"buffer":0,"byteOffset":13512,"byteLength":912,"target":34962},{"buffer":0,"byteOffset":25128,"byteLength":288,"target":34963},{"buffer":0,"byteOffset":14424,"byteLength":1092,"target":34962},{"buffer":0,"byteOffset":15516,"byteLength":1092,"target":34962},{"buffer":0,"byteOffset":25416,"byteLength":864,"target":34963},{"buffer":0,"byteOffset":16608,"byteLength":624,"target":34962},{"buffer":0,"byteOffset":17232,"byteLength":624,"target":34962},{"buffer":0,"byteOffset":26280,"byteLength":192,"target":34963},{"buffer":0,"byteOffset":17856,"byteLength":624,"target":34962},{"buffer":0,"byteOffset":18480,"byteLength":624,"target":34962},{"buffer":0,"byteOffset":26472,"byteLength":192,"target":34963},{"buffer":0,"byteOffset":19104,"byteLength":624,"target":34962},{"buffer":0,"byteOffset":19728,"byteLength":624,"target":34962},{"buffer":0,"byteOffset":26664,"byteLength":192,"target":34963},{"buffer":0,"byteOffset":20352,"byteLength":624,"target":34962},{"buffer":0,"byteOffset":20976,"byteLength":624,"target":34962},{"buffer":0,"byteOffset":26856,"byteLength":192,"target":34963}],"buffers":[{"byteLength":27048,"uri":"data:application/octet-stream;base64,"}]}