{"asset":{"version":"2.0","generator":"HomeDesigner model builder"},"scene":0,"scenes":[{"name":"Scene","nodes":[0,1,2,3,4]}],"nodes":[{"name":"top","mesh":0,"translation":[0,0.47,0]},{"name":"leg","mesh":1,"translation":[-0.43,0,-0.38]},{"name":"leg","mesh":2,"translation":[0.43,0,-0.38]},{"name":"leg","mesh":3,"translation":[-0.43,0,0.38]},{"name":"leg","mesh":4,"translation":[0.43,0,0.38]}],"meshes":[{"name":"top","primitives":[{"attributes":{"POSITION":0,"NORMAL":1},"material":0,"mode":4,"indices":2}]},{"name":"leg","primitives":[{"attributes":{"POSITION":3,"NORMAL":4},"material":1,"mode":4,"indices":5}]},{"name":"leg","primitives":[{"attributes":{"POSITION":6,"NORMAL":7},"material":1,"mode":4,"indices":8}]},{"name":"leg","primitives":[{"attributes":{"POSITION":9,"NORMAL":10},"material":1,"mode":4,"indices":11}]},{"name":"leg","primitives":[{"attributes":{"POSITION":12,"NORMAL":13},"material":1,"mode":4,"indices":14}]}],"materials":[{"name":"wood","pbrMetallicRoughness":{"baseColorFactor":[0.3515325994898463,0.17144110072255403,0.06847816983662762,1],"metallicFactor":0,"roughnessFactor":0.65},"doubleSided":false},{"name":"legs","pbrMetallicRoughness":{"baseColorFactor":[0.19461783043107173,0.10224173307914941,0.03954623527052923,1],"metallicFactor":0,"roughnessFactor":0.6},"doubleSided":false}],"accessors":[{"bufferView":0,"byteOffset":0,"componentType":5126,"count":24,"type":"VEC3","min":[-0.5,-0.029999999329447746,-0.44999998807907104],"max":[0.5,0.029999999329447746,0.44999998807907104]},{"bufferView":1,"byteOffset":0,"componentType":5126,"count":24,"type":"VEC3"},{"bufferView":2,"byteOffset":0,"componentType":5123,"count":36,"type":"SCALAR"},{"bufferView":3,"byteOffset":0,"componentType":5126,"count":24,"type":"VEC3","min":[-0.03500000014901161,-0.4399999976158142,-0.03500000014901161],"max":[0.03500000014901161,0.4399999976158142,0.03500000014901161]},{"bufferView":4,"byteOffset":0,"componentType":5126,"count":24,"type":"VEC3"},{"bufferView":5,"byteOffset":0,"componentType":5123,"count":36,"type":"SCALAR"},{"bufferView":6,"byteOffset":0,"componentType":5126,"count":24,"type":"VEC3","min":[-0.03500000014901161,-0.4399999976158142,-0.03500000014901161],"max":[0.03500000014901161,0.4399999976158142,0.03500000014901161]},{"bufferView":7,"byteOffset":0,"componentType":5126,"count":24,"type":"VEC3"},{"bufferView":8,"byteOffset":0,"componentType":5123,"count":36,"type":"SCALAR"},{"bufferView":9,"byteOffset":0,"componentType":5126,"count":24,"type":"VEC3","min":[-0.03500000014901161,-0.4399999976158142,-0.03500000014901161],"max":[0.03500000014901161,0.4399999976158142,0.03500000014901161]},{"bufferView":10,"byteOffset":0,"componentType":5126,"count":24,"type":"VEC3"},{"bufferView":11,"byteOffset":0,"componentType":5123,"count":36,"type":"SCALAR"},{"bufferView":12,"byteOffset":0,"componentType":5126,"count":24,"type":"VEC3","min":[-0.03500000014901161,-0.4399999976158142,-0.03500000014901161],"max":[0.03500000014901161,0.4399999976158142,0.03500000014901161]},{"bufferView":13,"byteOffset":0,"componentType":5126,"count":24,"type":"VEC3"},{"bufferView":14,"byteOffset":0,"componentType":5123,"count":36,"type":"SCALAR"}],"bufferViews":[{"buffer":0,"byteOffset":0,"byteLength":288,"target":34962},{"buffer":0,"byteOffset":288,"byteLength":288,"target":34962},{"buffer":0,"byteOffset":2880,"byteLength":72,"target":34963},{"buffer":0,"byteOffset":576,"byteLength":288,"target":34962},{"buffer":0,"byteOffset":864,"byteLength":288,"target":34962},{"buffer":0,"byteOffset":2952,"byteLength":72,"target":34963},{"buffer":0,"byteOffset":1152,"byteLength":288,"target":34962},{"buffer":0,"byteOffset":1440,"byteLength":288,"target":34962},{"buffer":0,"byteOffset":3024,"byteLength":72,"target":34963},{"buffer":0,"byteOffset":1728,"byteLength":288,"target":34962},{"buffer":0,"byteOffset":2016,"byteLength":288,"target":34962},{"buffer":0,"byteOffset":3096,"byteLength":72,"target":34963},{"buffer":0,"byteOffset":2304,"byteLength":288,"target":34962},{"buffer":0,"byteOffset":2592,"byteLength":288,"target":34962},{"buffer":0,"byteOffset":3168,"byteLength":72,"target":34963}],"buffers":[{"byteLength":3240,"uri":"data:application/octet-stream;base64,"}]}