{"asset":{"version":"2.0","generator":"HomeDesigner model builder"},"scene":0,"scenes":[{"name":"Scene","nodes":[0,1,2,3]}],"nodes":[{"name":"tank","mesh":0,"translation":[0,0.2,-0.34]},{"name":"tank_lid","mesh":1,"translation":[0,0.52,-0.34]},{"name":"bowl","mesh":2,"translation":[0,-0.08,0.1]},{"name":"seat_ring","mesh":3,"translation":[0,0.1,0.1]}],"meshes":[{"name":"tank","primitives":[{"attributes":{"POSITION":0,"NORMAL":1},"material":0,"mode":4,"indices":2}]},{"name":"tank_lid","primitives":[{"attributes":{"POSITION":3,"NORMAL":4},"material":0,"mode":4,"indices":5}]},{"name":"bowl","primitives":[{"attributes":{"POSITION":6,"NORMAL":7},"material":0,"mode":4,"indices":8}]},{"name":"seat_ring","primitives":[{"attributes":{"POSITION":9,"NORMAL":10},"material":1,"mode":4,"indices":11}]}],"materials":[{"name":"ceramic","pbrMetallicRoughness":{"baseColorFactor":[0.913098651791473,0.913098651791473,0.8713671191959567,1],"metallicFactor":0,"roughnessFactor":0.08},"doubleSided":false},{"name":"seat","pbrMetallicRoughness":{"baseColorFactor":[0.85499260812105,0.85499260812105,0.85499260812105,1],"metallicFactor":0,"roughnessFactor":0.15},"doubleSided":false}],"accessors":[{"bufferView":0,"byteOffset":0,"componentType":5126,"count":24,"type":"VEC3","min":[-0.375,-0.3100000023841858,-0.10999999940395355],"max":[0.375,0.3100000023841858,0.10999999940395355]},{"bufferView":1,"byteOffset":0,"componentType":5126,"count":24,"type":"VEC3"},{"bufferView":2,"byteOffset":0,"componentType":5123,"count":36,"type":"SCALAR"},{"bufferView":3,"byteOffset":0,"componentType":5126,"count":24,"type":"VEC3","min":[-0.38499999046325684,-0.019999999552965164,-0.11999999731779099],"max":[0.38499999046325684,0.019999999552965164,0.11999999731779099]},{"bufferView":4,"byteOffset":0,"componentType":5126,"count":24,"type":"VEC3"},{"bufferView":5,"byteOffset":0,"componentType":5123,"count":36,"type":"SCALAR"},{"bufferView":6,"byteOffset":0,"componentType":5126,"count":100,"type":"VEC3","min":[-0.2800000011920929,-0.17499999701976776,-0.2800000011920929],"max":[0.2800000011920929,0.17499999701976776,0.2800000011920929]},{"bufferView":7,"byteOffset":0,"componentType":5126,"count":100,"type":"VEC3"},{"bufferView":8,"byteOffset":0,"componentType":5123,"count":192,"type":"SCALAR"},{"bufferView":9,"byteOffset":0,"componentType":5126,"count":136,"type":"VEC3","min":[-0.26499998569488525,-0.26499998569488525,-0.04387175664305687],"max":[0.26499998569488525,0.26499998569488525,0.04387175664305687]},{"bufferView":10,"byteOffset":0,"componentType":5126,"count":136,"type":"VEC3"},{"bufferView":11,"byteOffset":0,"componentType":5123,"count":672,"type":"SCALAR"}],"bufferViews":[{"buffer":0,"byteOffset":0,"byteLength":288,"target":34962},{"buffer":0,"byteOffset":288,"byteLength":288,"target":34962},{"buffer":0,"byteOffset":6816,"byteLength":72,"target":34963},{"buffer":0,"byteOffset":576,"byteLength":288,"target":34962},{"buffer":0,"byteOffset":864,"byteLength":288,"target":34962},{"buffer":0,"byteOffset":6888,"byteLength":72,"target":34963},{"buffer":0,"byteOffset":1152,"byteLength":1200,"target":34962},{"buffer":0,"byteOffset":2352,"byteLength":1200,"target":34962},{"buffer":0,"byteOffset":6960,"byteLength":384,"target":34963},{"buffer":0,"byteOffset":3552,"byteLength":1632,"target":34962},{"buffer":0,"byteOffset":5184,"byteLength":1632,"target":34962},{"buffer":0,"byteOffset":7344,"byteLength":1344,"target":34963}],"buffers":[{"byteLength":8688,"uri":"data:application/octet-stream;base64,"}]}