{"asset":{"version":"2.0","generator":"HomeDesigner model builder"},"scene":0,"scenes":[{"name":"Scene","nodes":[0,1,2,3]}],"nodes":[{"name":"panel","mesh":0,"translation":[0,0.05,0]},{"name":"display","mesh":1,"translation":[0,0.05,0.04]},{"name":"neck","mesh":2,"translation":[0,-0.46,0]},{"name":"base","mesh":3,"translation":[0,-0.59,0.04]}],"meshes":[{"name":"panel","primitives":[{"attributes":{"POSITION":0,"NORMAL":1},"material":0,"mode":4,"indices":2}]},{"name":"display","primitives":[{"attributes":{"POSITION":3,"NORMAL":4},"material":1,"mode":4,"indices":5}]},{"name":"neck","primitives":[{"attributes":{"POSITION":6,"NORMAL":7},"material":2,"mode":4,"indices":8}]},{"name":"base","primitives":[{"attributes":{"POSITION":9,"NORMAL":10},"material":2,"mode":4,"indices":11}]}],"materials":[{"name":"frame","pbrMetallicRoughness":{"baseColorFactor":[0.005605391621829107,0.005605391621829107,0.005605391621829107,1],"metallicFactor":0.6,"roughnessFactor":0.15},"doubleSided":false},{"name":"screen","pbrMetallicRoughness":{"baseColorFactor":[0.010329823026364548,0.014443843592229466,0.051269458367115384,1],"metallicFactor":0.95,"roughnessFactor":0},"doubleSided":false},{"name":"stand","pbrMetallicRoughness":{"baseColorFactor":[0.015996293361446288,0.015996293361446288,0.015996293361446288,1],"metallicFactor":0.4,"roughnessFactor":0.3},"doubleSided":false}],"accessors":[{"bufferView":0,"byteOffset":0,"componentType":5126,"count":24,"type":"VEC3","min":[-0.5,-0.44999998807907104,-0.029999999329447746],"max":[0.5,0.44999998807907104,0.029999999329447746]},{"bufferView":1,"byteOffset":0,"componentType":5126,"count":24,"type":"VEC3"},{"bufferView":2,"byteOffset":0,"componentType":5123,"count":36,"type":"SCALAR"},{"bufferView":3,"byteOffset":0,"componentType":5126,"count":24,"type":"VEC3","min":[-0.4699999988079071,-0.41999998688697815,-0.004999999888241291],"max":[0.4699999988079071,0.41999998688697815,0.004999999888241291]},{"bufferView":4,"byteOffset":0,"componentType":5126,"count":24,"type":"VEC3"},{"bufferView":5,"byteOffset":0,"componentType":5123,"count":36,"type":"SCALAR"},{"bufferView":6,"byteOffset":0,"componentType":5126,"count":24,"type":"VEC3","min":[-0.03999999910593033,-0.125,-0.03999999910593033],"max":[0.03999999910593033,0.125,0.03999999910593033]},{"bufferView":7,"byteOffset":0,"componentType":5126,"count":24,"type":"VEC3"},{"bufferView":8,"byteOffset":0,"componentType":5123,"count":36,"type":"SCALAR"},{"bufferView":9,"byteOffset":0,"componentType":5126,"count":24,"type":"VEC3","min":[-0.17499999701976776,-0.014999999664723873,-0.10999999940395355],"max":[0.17499999701976776,0.014999999664723873,0.10999999940395355]},{"bufferView":10,"byteOffset":0,"componentType":5126,"count":24,"type":"VEC3"},{"bufferView":11,"byteOffset":0,"componentType":5123,"count":36,"type":"SCALAR"}],"bufferViews":[{"buffer":0,"byteOffset":0,"byteLength":288,"target":34962},{"buffer":0,"byteOffset":288,"byteLength":288,"target":34962},{"buffer":0,"byteOffset":2304,"byteLength":72,"target":34963},{"buffer":0,"byteOffset":576,"byteLength":288,"target":34962},{"buffer":0,"byteOffset":864,"byteLength":288,"target":34962},{"buffer":0,"byteOffset":2376,"byteLength":72,"target":34963},{"buffer":0,"byteOffset":1152,"byteLength":288,"target":34962},{"buffer":0,"byteOffset":1440,"byteLength":288,"target":34962},{"buffer":0,"byteOffset":2448,"byteLength":72,"target":34963},{"buffer":0,"byteOffset":1728,"byteLength":288,"target":34962},{"buffer":0,"byteOffset":2016,"byteLength":288,"target":34962},{"buffer":0,"byteOffset":2520,"byteLength":72,"target":34963}],"buffers":[{"byteLength":2592,"uri":"data:application/octet-stream;base64,"}]}