{"asset":{"version":"2.0","generator":"HomeDesigner model builder"},"scene":0,"scenes":[{"name":"Scene","nodes":[0,1,2,3,4]}],"nodes":[{"name":"body","mesh":0},{"name":"door_L","mesh":1,"translation":[-0.24,0,0.47]},{"name":"door_R","mesh":2,"translation":[0.24,0,0.47]},{"name":"handle_L","mesh":3,"translation":[-0.05,0,0.5]},{"name":"handle_R","mesh":4,"translation":[0.05,0,0.5]}],"meshes":[{"name":"body","primitives":[{"attributes":{"POSITION":0,"NORMAL":1},"material":0,"mode":4,"indices":2}]},{"name":"door_L","primitives":[{"attributes":{"POSITION":3,"NORMAL":4},"material":0,"mode":4,"indices":5}]},{"name":"door_R","primitives":[{"attributes":{"POSITION":6,"NORMAL":7},"material":0,"mode":4,"indices":8}]},{"name":"handle_L","primitives":[{"attributes":{"POSITION":9,"NORMAL":10},"material":1,"mode":4,"indices":11}]},{"name":"handle_R","primitives":[{"attributes":{"POSITION":12,"NORMAL":13},"material":1,"mode":4,"indices":14}]}],"materials":[{"name":"wood","pbrMetallicRoughness":{"baseColorFactor":[0.55201140150344,0.3915724777393922,0.22322795730611386,1],"metallicFactor":0,"roughnessFactor":0.6},"doubleSided":false},{"name":"handle","pbrMetallicRoughness":{"baseColorFactor":[0.24620132669705552,0.24620132669705552,0.24620132669705552,1],"metallicFactor":0.8,"roughnessFactor":0.2},"doubleSided":false}],"accessors":[{"bufferView":0,"byteOffset":0,"componentType":5126,"count":24,"type":"VEC3","min":[-0.5,-0.5,-0.44999998807907104],"max":[0.5,0.5,0.44999998807907104]},{"bufferView":1,"byteOffset":0,"componentType":5126,"count":24,"type":"VEC3"},{"bufferView":2,"byteOffset":0,"componentType":5123,"count":36,"type":"SCALAR"},{"bufferView":3,"byteOffset":0,"componentType":5126,"count":24,"type":"VEC3","min":[-0.23999999463558197,-0.4749999940395355,-0.019999999552965164],"max":[0.23999999463558197,0.4749999940395355,0.019999999552965164]},{"bufferView":4,"byteOffset":0,"componentType":5126,"count":24,"type":"VEC3"},{"bufferView":5,"byteOffset":0,"componentType":5123,"count":36,"type":"SCALAR"},{"bufferView":6,"byteOffset":0,"componentType":5126,"count":24,"type":"VEC3","min":[-0.23999999463558197,-0.4749999940395355,-0.019999999552965164],"max":[0.23999999463558197,0.4749999940395355,0.019999999552965164]},{"bufferView":7,"byteOffset":0,"componentType":5126,"count":24,"type":"VEC3"},{"bufferView":8,"byteOffset":0,"componentType":5123,"count":36,"type":"SCALAR"},{"bufferView":9,"byteOffset":0,"componentType":5126,"count":52,"type":"VEC3","min":[-0.014999999664723873,-0.05999999865889549,-0.014999999664723873],"max":[0.014999999664723873,0.05999999865889549,0.014999999664723873]},{"bufferView":10,"byteOffset":0,"componentType":5126,"count":52,"type":"VEC3"},{"bufferView":11,"byteOffset":0,"componentType":5123,"count":96,"type":"SCALAR"},{"bufferView":12,"byteOffset":0,"componentType":5126,"count":52,"type":"VEC3","min":[-0.014999999664723873,-0.05999999865889549,-0.014999999664723873],"max":[0.014999999664723873,0.05999999865889549,0.014999999664723873]},{"bufferView":13,"byteOffset":0,"componentType":5126,"count":52,"type":"VEC3"},{"bufferView":14,"byteOffset":0,"componentType":5123,"count":96,"type":"SCALAR"}],"bufferViews":[{"buffer":0,"byteOffset":0,"byteLength":288,"target":34962},{"buffer":0,"byteOffset":288,"byteLength":288,"target":34962},{"buffer":0,"byteOffset":4224,"byteLength":72,"target":34963},{"buffer":0,"byteOffset":576,"byteLength":288,"target":34962},{"buffer":0,"byteOffset":864,"byteLength":288,"target":34962},{"buffer":0,"byteOffset":4296,"byteLength":72,"target":34963},{"buffer":0,"byteOffset":1152,"byteLength":288,"target":34962},{"buffer":0,"byteOffset":1440,"byteLength":288,"target":34962},{"buffer":0,"byteOffset":4368,"byteLength":72,"target":34963},{"buffer":0,"byteOffset":1728,"byteLength":624,"target":34962},{"buffer":0,"byteOffset":2352,"byteLength":624,"target":34962},{"buffer":0,"byteOffset":4440,"byteLength":192,"target":34963},{"buffer":0,"byteOffset":2976,"byteLength":624,"target":34962},{"buffer":0,"byteOffset":3600,"byteLength":624,"target":34962},{"buffer":0,"byteOffset":4632,"byteLength":192,"target":34963}],"buffers":[{"byteLength":4824,"uri":"data:application/octet-stream;base64,"}]}