{"asset":{"version":"2.0","generator":"HomeDesigner model builder"},"scene":0,"scenes":[{"name":"Scene","nodes":[0,1,2,3]}],"nodes":[{"name":"body","mesh":0},{"name":"porthole_ring","mesh":1,"translation":[0,0,0.46]},{"name":"porthole_glass","mesh":2,"translation":[0,0,0.47]},{"name":"panel","mesh":3,"translation":[0,0.44,0.43]}],"meshes":[{"name":"body","primitives":[{"attributes":{"POSITION":0,"NORMAL":1},"material":0,"mode":4,"indices":2}]},{"name":"porthole_ring","primitives":[{"attributes":{"POSITION":3,"NORMAL":4},"material":1,"mode":4,"indices":5}]},{"name":"porthole_glass","primitives":[{"attributes":{"POSITION":6,"NORMAL":7},"material":2,"mode":4,"indices":8}]},{"name":"panel","primitives":[{"attributes":{"POSITION":9,"NORMAL":10},"material":1,"mode":4,"indices":11}]}],"materials":[{"name":"metal","pbrMetallicRoughness":{"baseColorFactor":[0.8713671191959567,0.8713671191959567,0.8713671191959567,1],"metallicFactor":0.4,"roughnessFactor":0.2},"doubleSided":false},{"name":"dark","pbrMetallicRoughness":{"baseColorFactor":[0.015996293361446288,0.015996293361446288,0.015996293361446288,1],"metallicFactor":0,"roughnessFactor":0.5},"doubleSided":false},{"name":"glass","pbrMetallicRoughness":{"baseColorFactor":[0.31854677811435356,0.6038273388475408,0.85499260812105,1],"metallicFactor":0.1,"roughnessFactor":0.05},"doubleSided":false}],"accessors":[{"bufferView":0,"byteOffset":0,"componentType":5126,"count":24,"type":"VEC3","min":[-0.5,-0.5,-0.44999998807907104],"max":[0.5,0.5,0.44999998807907104]},{"bufferView":1,"byteOffset":0,"componentType":5126,"count":24,"type":"VEC3"},{"bufferView":2,"byteOffset":0,"componentType":5123,"count":36,"type":"SCALAR"},{"bufferView":3,"byteOffset":0,"componentType":5126,"count":189,"type":"VEC3","min":[-0.3400000035762787,-0.3400000035762787,-0.03999999910593033],"max":[0.3400000035762787,0.3400000035762787,0.03999999910593033]},{"bufferView":4,"byteOffset":0,"componentType":5126,"count":189,"type":"VEC3"},{"bufferView":5,"byteOffset":0,"componentType":5123,"count":960,"type":"SCALAR"},{"bufferView":6,"byteOffset":0,"componentType":5126,"count":22,"type":"VEC3","min":[-0.25999999046325684,-0.25999999046325684,0],"max":[0.25999999046325684,0.25999999046325684,0]},{"bufferView":7,"byteOffset":0,"componentType":5126,"count":22,"type":"VEC3"},{"bufferView":8,"byteOffset":0,"componentType":5123,"count":60,"type":"SCALAR"},{"bufferView":9,"byteOffset":0,"componentType":5126,"count":24,"type":"VEC3","min":[-0.49000000953674316,-0.05999999865889549,-0.02500000037252903],"max":[0.49000000953674316,0.05999999865889549,0.02500000037252903]},{"bufferView":10,"byteOffset":0,"componentType":5126,"count":24,"type":"VEC3"},{"bufferView":11,"byteOffset":0,"componentType":5123,"count":36,"type":"SCALAR"}],"bufferViews":[{"buffer":0,"byteOffset":0,"byteLength":288,"target":34962},{"buffer":0,"byteOffset":288,"byteLength":288,"target":34962},{"buffer":0,"byteOffset":6216,"byteLength":72,"target":34963},{"buffer":0,"byteOffset":576,"byteLength":2268,"target":34962},{"buffer":0,"byteOffset":2844,"byteLength":2268,"target":34962},{"buffer":0,"byteOffset":6288,"byteLength":1920,"target":34963},{"buffer":0,"byteOffset":5112,"byteLength":264,"target":34962},{"buffer":0,"byteOffset":5376,"byteLength":264,"target":34962},{"buffer":0,"byteOffset":8208,"byteLength":120,"target":34963},{"buffer":0,"byteOffset":5640,"byteLength":288,"target":34962},{"buffer":0,"byteOffset":5928,"byteLength":288,"target":34962},{"buffer":0,"byteOffset":8328,"byteLength":72,"target":34963}],"buffers":[{"byteLength":8400,"uri":"data:application/octet-stream;base64,"}]}